<svg fill-rule="evenodd" clip-rule="evenodd" image-rendering="optimizeQuality" shape-rendering="geometricPrecision" text-rendering="geometricPrecision" viewBox="0 0 1920 1080">
  <path fill="#fefefe" d="M-.5-.5h1920v1080H-.5V-.5Z"/>
  <path fill="#040404" d="M950.5 182.5h7v64h-7v-64Z"/>
  <path fill="#0c0c0c" d="M813.5 217.5a4467.427 4467.427 0 0 1 32 56.5 47.02 47.02 0 0 1-5.5 3.5l-31-54c-.667-1-.667-2 0-3a29.01 29.01 0 0 0 4.5-3Z"/>
  <path fill="#0b0b0b" d="M1105.5 224.5c2.78.959 4.62 2.626 5.5 5a2080.097 2080.097 0 0 0-32.5 52c-2.63.648-4.97-.185-7-2.5a2728.749 2728.749 0 0 0 34-54.5Z"/>
  <path fill="#0c0c0c" d="M706.5 317.5a2271.387 2271.387 0 0 1 54 32.5c1.172 1.868 1.005 3.702-.5 5.5-1.049 1.017-2.216 1.184-3.5.5a2004.115 2004.115 0 0 0-51-32 3.943 3.943 0 0 1-1-2 15.414 15.414 0 0 0 2-4.5Z"/>
  <path fill="#0b0b0b" d="M1205.5 329.5c2.09.061 3.59 1.061 4.5 3 .75 1.135.58 2.135-.5 3a1452.949 1452.949 0 0 0-54.5 31c-3.58-3.083-3.75-5.916-.5-8.5a935.27 935.27 0 0 0 51-28.5Z"/>
  <path fill="#070707" d="M941.5 342.5c58.131-3.189 102.3 19.811 132.5 69 24.75 52.233 20.08 101.567-14 148-39.38 42.792-87.217 56.625-143.5 41.5-52.319-19.115-82.486-56.282-90.5-111.5-3.9-58.041 18.933-101.874 68.5-131.5 14.955-7.708 30.621-12.874 47-15.5Z"/>
  <path fill="#fcfcfc" d="M943.5 353.5c58.8-2.536 100.96 22.464 126.5 75 19.08 55.438 6.91 102.604-36.5 141.5-42.201 30.776-86.867 34.776-134 12-46.113-28.057-66.946-69.223-62.5-123.5 11.859-59.026 47.359-94.026 106.5-105Z"/>
  <path fill="#060606" d="M931.5 363.5c2.948-.277 5.781.056 8.5 1 1.235 4.439-.432 7.106-5 8-.808 2.079-.641 4.079.5 6 6.188-3.747 9.021-2.08 8.5 5-1.49 2.058-3.49 3.391-6 4a12.93 12.93 0 0 0-.5 5c2.619-.268 5.119.065 7.5 1 .165-8.994 1.831-17.661 5-26 5.529-4.544 10.196-3.877 14 2a54.628 54.628 0 0 1 2 7c1.133-4.777 3.633-8.61 7.5-11.5 4.928-1.643 8.428-.143 10.5 4.5a329.762 329.762 0 0 1-1 32c-1.713 4.538-4.88 6.038-9.5 4.5a6.978 6.978 0 0 1-2.5-3.5c-.406-4.461-.072-8.794 1-13-6.159 13.775-10.493 13.108-13-2l-1 13a9.454 9.454 0 0 1-1.5 2.5 16.242 16.242 0 0 1-8 0 32.367 32.367 0 0 0-3-4.5c-3.417 6.424-8.75 8.924-16 7.5a25.55 25.55 0 0 1-5.5-6.5c-3.412 11.887-11.245 16.553-23.5 14-5.561-10.851-9.394-22.184-11.5-34 6.221-6.942 13.721-8.775 22.5-5.5 5.62 4.077 6.287 8.744 2 14 2.958.229 5.458 1.396 7.5 3.5a285.445 285.445 0 0 1 0-23c.5-1.167 1.333-2 2.5-2.5 2.879-.546 5.546-1.379 8-2.5Z"/>
  <path fill="#090909" d="M1001.5 372.5c-.17 3.682 0 7.348.5 11 .72-.544 1.22-1.211 1.5-2 2.33-5.326 6.33-7.826 12-7.5 4.21 3.07 5.04 6.903 2.5 11.5a87.453 87.453 0 0 1-13 13c-1.45 5.395-4.28 9.895-8.5 13.5-3.76 1.176-6.593.01-8.5-3.5a59.91 59.91 0 0 1 2.5-15 79.34 79.34 0 0 1-.5-19c1.841-5.506 5.341-7.006 10.5-4.5.75.671 1.09 1.504 1 2.5Z"/>
  <path fill="#6e6e6e" d="M1001.5 372.5c.67 3 1.33 6 2 9-.28.789-.78 1.456-1.5 2-.5-3.652-.67-7.318-.5-11Z"/>
  <path fill="#e0e0e0" d="M900.5 382.5c5.457 1.155 6.29 3.822 2.5 8a37.914 37.914 0 0 1-2.5-8Z"/>
  <path fill="#ebebeb" d="M906.5 396.5c.996-.086 1.829.248 2.5 1 .851 2.553.518 4.886-1 7a14.293 14.293 0 0 0-2.5-6.5c.556-.383.889-.883 1-1.5Z"/>
  <path fill="#060606" d="M944.5 414.5c43.41-2.46 77.41 14.04 102 49.5 1.55 3.597 3.22 7.097 5 10.5-17.15 34.95-45.15 55.117-84 60.5-42.927 2.12-76.094-14.713-99.5-50.5a121.865 121.865 0 0 1-4.5-9.5c12.217-25.547 31.55-43.547 58-54a309.768 309.768 0 0 1 23-6.5Z"/>
  <path fill="#fcfcfc" d="M944.5 425.5c41.773-2.45 73.44 14.05 95 49.5-21.28 35.31-52.615 51.643-94 49-30.351-5.573-53.518-21.406-69.5-47.5-.667-1-.667-2 0-3 15.958-25.736 38.792-41.736 68.5-48Z"/>
  <path fill="#080808" d="M948.5 442.5c28.258-2.002 42.091 10.998 41.5 39-6.162 19.171-19.329 28.004-39.5 26.5-22.993-8.99-30.493-25.157-22.5-48.5 5.029-7.919 11.863-13.586 20.5-17Z"/>
  <path fill="#fcfcfc" d="M951.5 453.5c19.301-1.198 28.468 7.802 27.5 27-6.706 15.241-17.873 19.741-33.5 13.5-9.097-7.217-11.93-16.384-8.5-27.5 3.195-6.372 8.028-10.705 14.5-13Z"/>
  <path d="M725.5 471.5v6h-64v-6h64Zm457 0h64v6h-64v-6Z"/>
  <path fill="#464646" d="M725.5 471.5c.968 2.107 1.302 4.441 1 7-21.84.331-43.506-.003-65-1h64v-6Z"/>
  <path fill="#444" d="M1182.5 471.5v6h64a1056.82 1056.82 0 0 1-65 1c-.3-2.559.03-4.893 1-7Z"/>
  <path fill="#3eb7ff" d="M984.5 539.5a32.462 32.462 0 0 1 8 .5c2.765 2.966 2.432 5.633-1 8-1.525 1.009-3.192 1.509-5 1.5-.352 2.573.148 4.906 1.5 7 7.369-4.146 10.702-2.146 10 6-1.645 2.162-3.812 3.495-6.5 4-2.087 4.778-.754 6.444 4 5 3.754 1.352 4.92 4.018 3.5 8-6.052 9.819-13.386 11.153-22 4-3.377-7.289-5.377-14.956-6-23a59.043 59.043 0 0 1-5 9 97.754 97.754 0 0 1-2 16c-3.532 5.79-7.865 6.457-13 2-.125-8.948-2.458-17.282-7-25a36.078 36.078 0 0 1-3.5 4.5c-3.109.696-5.942 1.862-8.5 3.5-.684 1.284-.517 2.451.5 3.5 7.277 1.954 7.944 5.621 2 11-6.934 4.03-13.1 3.197-18.5-2.5-2.804-14.453-.637-28.12 6.5-41a48.73 48.73 0 0 1 17-.5c3.398 1.916 7.065 2.916 11 3 2.763 3.361 4.597 7.195 5.5 11.5 1.068-4.55 2.902-8.717 5.5-12.5 3.712-1.898 7.378-1.731 11 .5a1519.14 1519.14 0 0 0 12-4Z"/>
  <path fill="#f3faff" d="M934.5 551.5h6l1 6h-8a19.22 19.22 0 0 1 1-6Z"/>
  <path fill="#0b0b0b" d="M751.5 583.5c2.124.531 3.624 1.865 4.5 4 .617.949.451 1.782-.5 2.5a68321.9 68321.9 0 0 1-54.5 30.5 18.061 18.061 0 0 1-4.5-5.5 1100.111 1100.111 0 0 0 55-31.5Z"/>
  <path fill="#0c0c0c" d="M1148.5 592.5a2485.352 2485.352 0 0 1 56 34.5 10.979 10.979 0 0 0-3 4.5c-.5 1.021-1.17 1.188-2 .5l-54-34c1.66-1.488 2.66-3.321 3-5.5Z"/>
  <path fill="#0b0b0b" d="M829.5 666.5a24.257 24.257 0 0 1 5.5 3c.667 1 .667 2 0 3a2058.506 2058.506 0 0 1-33.5 52 18.924 18.924 0 0 1-5-3 2349.85 2349.85 0 0 0 33-55Z"/>
  <path fill="#0c0c0c" d="M1066.5 672.5c1.18-.219 2.18.114 3 1 9.95 18.41 20.29 36.577 31 54.5a27.032 27.032 0 0 1-6 3.5 4583.305 4583.305 0 0 0-32-55.5c1.23-1.405 2.56-2.571 4-3.5Z"/>
  <path fill="#040404" d="M950.5 702.5h7v65h-7v-65Z"/>
  <path fill="#bdbdbd" d="M789.5 811.5h-33v63a1024.542 1024.542 0 0 1-1-64c11.512-.328 22.846.005 34 1Z"/>
  <path fill="#050505" d="M789.5 811.5c14.853 3.04 19.02 11.373 12.5 25a28.415 28.415 0 0 1-7.5 4.5c12.711 4.599 16.211 13.099 10.5 25.5-3.917 4.209-8.75 6.709-14.5 7.5-11.328.5-22.662.667-34 .5v-63h33Z"/>
  <path fill="#5d5d5d" d="M886.5 811.5h-12v63a1024.542 1024.542 0 0 1-1-64c4.532-.318 8.866.015 13 1Z"/>
  <path fill="#040404" d="M885.5 829.5c-.283-.789-.783-1.456-1.5-2-.5 15.663-.667 31.33-.5 47h-9v-63h12a1212.256 1212.256 0 0 0 22 41 616.692 616.692 0 0 0 21-42h13v64h-10c.167-15.67 0-31.337-.5-47l-19.5 39c-2.872 1.283-5.705 1.283-8.5 0l-18.5-37Z"/>
  <path fill="#8b8b8b" d="M1052.5 811.5h-45v63c-1-21.16-1.33-42.493-1-64 15.51-.33 30.84.004 46 1Z"/>
  <path fill="#040404" d="M1052.5 811.5v9h-35v17c10.15.994 20.49 1.328 31 1v9h-31v17h36v10h-46v-63h45Z"/>
  <path fill="#fbfbfb" d="M767.5 820.5a94.81 94.81 0 0 1 23 1.5c4.936 3.958 5.269 8.291 1 13a10.134 10.134 0 0 1-4 1.5h-20v-16Z"/>
  <path fill="#090909" d="M861.5 842.5v11h-36c-.237 1.291.096 2.291 1 3 3.539 8.436 9.872 11.603 19 9.5a28.53 28.53 0 0 0 9-4.5c6.732 4.46 6.065 7.96-2 10.5-13.097 5.358-24.263 2.858-33.5-7.5-5.216-10.766-4.549-21.1 2-31 12.363-10.611 24.697-10.611 37 0a25.93 25.93 0 0 1 3.5 9Z"/>
  <path fill="#070707" d="M950.5 827.5c3.519-1.308 7.185-1.308 11 0a1058.376 1058.376 0 0 0 14 34c4.331-11.324 8.664-22.657 13-34a25.879 25.879 0 0 1 10-1 2110.522 2110.522 0 0 1-22.5 58c-4.772 6.796-11.272 9.296-19.5 7.5a14.587 14.587 0 0 1-6-4 28.415 28.415 0 0 0 4.5-7.5c7.988 4.091 13.155 1.758 15.5-7a37829.96 37829.96 0 0 1-20-46Zm108-1c3.61-.289 7.11.044 10.5 1 4.86 11.587 9.53 23.254 14 35 4.33-11.667 8.67-23.333 13-35 3.46-1.291 6.96-1.291 10.5 0a2010.573 2010.573 0 0 0-22.5 56c-4.43 7.408-10.93 10.242-19.5 8.5-2.54-.546-4.54-1.879-6-4a87.416 87.416 0 0 1 4.5-7.5c7.84 4.303 12.67 1.97 14.5-7a2054.714 2054.714 0 0 1-19-47Z"/>
  <path fill="#0a0a0a" d="M1129.5 825.5c19.66-.334 28.66 9.332 27 29-12.02-.332-24.02.001-36 1 3.69 9.014 10.36 12.514 20 10.5 3.02-1.688 6.02-3.021 9-4 4.57 2.382 4.9 5.049 1 8-9.34 5.072-19.01 5.738-29 2-12.55-10.025-15.05-22.191-7.5-36.5 4.21-5.008 9.37-8.341 15.5-10Z"/>
  <path fill="#b8b8b8" d="m885.5 829.5-2 45c-.167-15.67 0-31.337.5-47 .717.544 1.217 1.211 1.5 2Z"/>
  <path fill="#f9f9f9" d="M834.5 834.5c7.59-1.645 13.423.688 17.5 7a12.93 12.93 0 0 1 .5 5h-27c.756-5.748 3.756-9.748 9-12Zm294 0c5.28-.569 10.28.265 15 2.5 2.58 2.651 3.91 5.818 4 9.5h-27c.66-5.328 3.33-9.328 8-12Z"/>
  <path fill="#9e9e9e" d="M767.5 820.5v16h20c-6.813.991-13.813 1.325-21 1-.322-5.858.011-11.525 1-17Z"/>
  <path fill="#595959" d="M1017.5 837.5h32c.31 3.542-.02 6.875-1 10v-9c-10.51.328-20.85-.006-31-1Z"/>
  <path fill="#fbfbfb" d="M767.5 846.5c8.071-.363 16.071.137 24 1.5 4.724 2.435 6.224 6.269 4.5 11.5-1.637 2.31-3.804 3.81-6.5 4.5-7.326.5-14.659.666-22 .5v-18Z"/>
  <path fill="#2f2f2f" d="M861.5 842.5c.983 3.798 1.317 7.798 1 12-12.38-.646-24.38.021-36 2-.904-.709-1.237-1.709-1-3h36v-11Z"/>
</svg>